# xmcd
#
# Track frame offsets:
#	150
#	26289
#	58151
#	80947
#	88785
#	122062
#	158459
#	175505
#	189289
#	208740
#	225700
#
# Disc length: 3320 seconds
#
# Revision: 1
# Processed by: cddbd v1.5.2PL0 Copyright (c) Steve Scherf et al.
# Submitted via: audiograbber 1.83.01
#
DISCID=860cf60b
DTITLE=Byron Cage - 2003 - Live at New Birth Cathedral
DYEAR=2003
DGENRE=Christian
TTITLE0=Intro
TTITLE1=Magnify
TTITLE2=The Presence Of The Lord Is Here
TTITLE3=Thou Art A Shield For Me: Psalm 3
TTITLE4=There Is A Name
TTITLE5=Medley: Glory Song - Yet Praise Him - Shabach
TTITLE6=That's What You Are To Me
TTITLE7=It Is To You
TTITLE8=Glory To Your Name
TTITLE9=Never Too Busy
TTITLE10=Still Say Yes
EXTD=
EXTT0=
EXTT1=
EXTT2=
EXTT3=
EXTT4=
EXTT5=
EXTT6=
EXTT7=
EXTT8=
EXTT9=
EXTT10=
PLAYORDER=
